<?xml version="1.0" encoding="UTF-8"?>
<svg width="119px" height="119px" viewBox="0 0 119 119" version="1.1" xmlns="http://www.w3.org/2000/svg" xmlns:xlink="http://www.w3.org/1999/xlink">
    <!-- Generator: Sketch 47.1 (45422) - http://www.bohemiancoding.com/sketch -->
    <title>ic_durum_kotu</title>
    <desc>Created with Sketch.</desc>
    <defs>
        <radialGradient cx="50%" cy="1.86941964%" fx="50%" fy="1.86941964%" r="98.1305804%" id="radialGradient-1">
            <stop stop-color="#CF1B61" offset="0%"></stop>
            <stop stop-color="#97004B" offset="100%"></stop>
        </radialGradient>
        <circle id="path-2" cx="59.5" cy="59.5" r="55.5"></circle>
    </defs>
    <g id="Symbols" stroke="none" stroke-width="1" fill="none" fill-rule="evenodd">
        <g id="ic_durum_kotu">
            <g id="Oval">
                <use fill="url(#radialGradient-1)" fill-rule="evenodd" xlink:href="#path-2"></use>
                <circle stroke="#FFFFFF" stroke-width="4" cx="59.5" cy="59.5" r="57.5"></circle>
            </g>
            <g id="boy-smiling-copy-5" transform="translate(34.000000, 25.000000)">
                <path d="M51.0948905,34.5924541 C51.0948905,31.6349676 48.9686661,29.168921 46.1730397,28.6546169 L46.1730397,10.4405769 C46.1730397,8.07769062 45.00409,5.88710094 43.0460959,4.58072232 C41.2070675,3.35382334 38.9238462,3.07537239 36.8594732,3.80688454 L30.061781,1.48673215 C24.838388,-0.296252152 19.3401152,-0.479164213 14.1615205,0.957593691 C7.3819641,2.8385666 3.4952097,6.81608734 2.89523818,12.4700298 C2.36429112,13.1741868 1.9424298,13.9650365 1.65577524,14.8183539 L1.12848242,16.3876686 C0.845482091,17.2302345 1.15744563,18.1156704 1.90507538,18.5909151 C2.65243445,19.0661599 3.58182864,18.9700766 4.21753048,18.3515235 C4.43461921,18.1401676 4.67200925,17.9621549 4.92185077,17.8132667 L4.92185077,28.654753 C2.12622437,29.1690571 0,31.6349676 0,34.5925902 C0,37.6684797 2.2995976,40.2127811 5.2604767,40.582688 C6.00404619,44.7112745 7.95798007,48.5196288 10.9456569,51.5672105 C14.8463515,55.5460922 20.0318487,57.7372263 25.5474453,57.7372263 C25.548122,57.7372263 25.5487987,57.7372263 25.5494754,57.7372263 C31.0580342,57.7366819 36.2367642,55.5792995 40.1319098,51.6626133 C43.1745355,48.6030553 45.1494475,44.7559138 45.86852,40.578333 C48.8128874,40.1929111 51.0948905,37.6563673 51.0948905,34.5924541 Z M41.8488597,6.39528073 C43.2208225,7.31052151 44.0075662,8.7849778 44.0075662,10.4405769 L44.0075662,24.688256 C40.6468865,24.1630643 38.0664541,21.2337494 38.0664541,17.709426 L37.9768576,5.73848489 C39.2990145,5.38803954 40.6777445,5.61395771 41.8488597,6.39528073 Z M3.49696915,16.1414722 L3.70742611,15.5152978 C4.25867448,13.8746692 5.48284376,12.5427047 7.06594029,11.8611395 C8.64890148,11.1795743 10.4523349,11.2078821 12.0135061,11.9391221 C15.2923037,13.4746852 19.2560678,12.6445039 21.652435,9.92042075 L21.920683,9.61543122 C22.3169647,9.16509193 22.2750086,8.47699418 21.8271616,8.07864328 C21.379044,7.68029239 20.6948896,7.72234583 20.2987433,8.17268512 L20.0304953,8.47767465 C18.2645516,10.4850801 15.3437337,11.0966923 12.9277419,9.9651961 C10.8092321,8.97292539 8.36184089,8.93441042 6.21355576,9.85945006 C6.01798642,9.94369304 5.82783077,10.0377349 5.64065265,10.1361318 C6.89919883,6.76219361 9.9452081,4.38624216 14.7376718,3.05659124 C19.4964354,1.73619481 24.554711,1.90645 29.3659872,3.54857569 L35.811384,5.74855594 L35.8958375,11.3743267 C33.0259083,15.2980898 28.8403185,17.9542614 24.0705923,18.8675969 C19.1866373,19.8027075 14.2040179,18.8131587 10.0406243,16.081182 C8.00616186,14.7464956 5.44142908,14.8035195 3.49696915,16.1414722 Z M2.16547358,34.5924541 C2.16547358,32.8418605 3.33063371,31.3605995 4.92185077,30.8893015 L4.92185077,36.7906652 C4.92185077,37.3004781 4.94012195,37.807433 4.97571692,38.3111217 C3.35716076,37.8575161 2.16547358,36.3627816 2.16547358,34.5924541 Z M38.6007847,50.1225591 C35.1146429,53.6281014 30.479582,55.5588852 25.54934,55.5594296 C20.6165266,55.5594296 15.9780822,53.5984326 12.4877448,50.0383161 C9.00525723,46.485957 7.08732435,41.7811431 7.08732435,36.7905291 L7.08732435,17.2999153 C7.7005594,17.3459155 8.30905747,17.5454312 8.85692229,17.9048588 C13.4918478,20.9461801 19.0384377,22.0478714 24.4754005,21.0067425 C28.888771,20.1615908 32.8534824,17.9768532 35.9008451,14.7547974 L35.9008451,17.7092899 C35.9008451,22.4360152 39.4491089,26.3427664 44.0074308,26.8834729 L44.0074308,36.9964412 C44.0075662,41.9549368 42.0874678,46.6166085 38.6007847,50.1225591 Z M46.131219,38.3075832 C46.1580168,37.8728949 46.1730397,37.4358929 46.1730397,36.9965773 L46.1730397,30.8893015 C47.7642568,31.3605995 48.9294169,32.8418605 48.9294169,34.5924541 C48.9294169,36.3582904 47.7438201,37.8500308 46.131219,38.3075832 Z" id="Shape" fill="#FFFFFF" fill-rule="nonzero"></path>
                <path d="M25.2919708,53.649635 C21.7646047,53.649635 18.9051095,50.7901398 18.9051095,47.2627737 C18.9051095,43.7354076 21.7646047,40.8759124 25.2919708,40.8759124 C28.8193369,40.8759124 31.6788321,43.7354076 31.6788321,47.2627737 C31.6788321,50.7901398 28.8193369,53.649635 25.2919708,53.649635 Z M23.2481752,47.0072993 C23.9536484,47.0072993 24.5255474,46.4354002 24.5255474,45.729927 C24.5255474,45.0244538 23.9536484,44.4525547 23.2481752,44.4525547 C22.542702,44.4525547 21.9708029,45.0244538 21.9708029,45.729927 C21.9708029,46.4354002 22.542702,47.0072993 23.2481752,47.0072993 Z M23.2481752,50.5839416 C23.9536484,50.5839416 24.5255474,50.0120426 24.5255474,49.3065693 C24.5255474,48.6010961 23.9536484,48.0291971 23.2481752,48.0291971 C22.542702,48.0291971 21.9708029,48.6010961 21.9708029,49.3065693 C21.9708029,50.0120426 22.542702,50.5839416 23.2481752,50.5839416 Z M27.3357664,47.0072993 C28.0412396,47.0072993 28.6131387,46.4354002 28.6131387,45.729927 C28.6131387,45.0244538 28.0412396,44.4525547 27.3357664,44.4525547 C26.6302932,44.4525547 26.0583942,45.0244538 26.0583942,45.729927 C26.0583942,46.4354002 26.6302932,47.0072993 27.3357664,47.0072993 Z M27.3357664,50.5839416 C28.0412396,50.5839416 28.6131387,50.0120426 28.6131387,49.3065693 C28.6131387,48.6010961 28.0412396,48.0291971 27.3357664,48.0291971 C26.6302932,48.0291971 26.0583942,48.6010961 26.0583942,49.3065693 C26.0583942,50.0120426 26.6302932,50.5839416 27.3357664,50.5839416 Z" id="Combined-Shape" stroke="#FFFFFF"></path>
                <polygon id="Combined-Shape" fill="#FFFFFF" points="42.4017266 58.8599367 45.428788 57.2262774 48.268257 62.4875701 35.02925 69.6324624 32.189781 64.3711696 35.7799275 62.4336218 32.8631154 56.2908273 34.5911057 55.327445 37.5660819 61.4696612 40.5775145 59.8444365 36.7883212 51.9908315 38.6252725 51.0948905"></polygon>
                <polygon id="Combined-Shape-Copy" fill="#FFFFFF" transform="translate(10.083034, 60.363676) scale(-1, 1) translate(-10.083034, -60.363676) " points="12.2557412 58.8599367 15.2828026 57.2262774 18.1222716 62.4875701 4.88326457 69.6324624 2.04379562 64.3711696 5.63394206 62.4336218 2.56550357 56.1128192 4.34422805 55.1855637 7.42009647 61.4696612 10.4315291 59.8444365 6.64233577 51.9908315 8.4792871 51.0948905"></polygon>
                <path d="M16.9425227,24.0145985 C13.2351811,24.0145985 10.2189781,27.0306781 10.2189781,30.7381431 C10.2189781,34.4456081 13.2351811,37.4616876 16.9425227,37.4616876 C20.6498642,37.4616876 23.6660672,34.4456081 23.6660672,30.7381431 C23.6660672,27.0306781 20.6498642,24.0145985 16.9425227,24.0145985 Z M16.9425227,35.6699108 C14.223139,35.6699108 12.0106315,33.4575267 12.0106315,30.7381431 C12.0106315,28.0187595 14.2230156,25.8063754 16.9425227,25.8063754 C19.6620297,25.8063754 21.8744138,28.0187595 21.8744138,30.7381431 C21.8744138,33.4575267 19.6620297,35.6699108 16.9425227,35.6699108 Z" id="XMLID_1040_" fill="#FFFFFF" fill-rule="nonzero"></path>
                <path d="M40.5273811,30.7381431 C40.5273811,27.0308015 37.5111781,24.0145985 33.8038365,24.0145985 C30.0964949,24.0145985 27.080292,27.0306781 27.080292,30.7381431 C27.080292,34.4456081 30.0964949,37.4616876 33.8038365,37.4616876 C37.5111781,37.4616876 40.5273811,34.4454847 40.5273811,30.7381431 Z M33.8038365,35.6699108 C31.0844529,35.6699108 28.8719454,33.4575267 28.8719454,30.7381431 C28.8719454,28.0187595 31.0843295,25.8063754 33.8038365,25.8063754 C36.5233436,25.8063754 38.7357276,28.0187595 38.7357276,30.7381431 C38.7357276,33.4575267 36.5232201,35.6699108 33.8038365,35.6699108 Z" id="XMLID_1125_" fill="#FFFFFF" fill-rule="nonzero"></path>
            </g>
        </g>
    </g>
</svg>