<?xml version="1.0" encoding="UTF-8"?>
<svg width="119px" height="119px" viewBox="0 0 119 119" version="1.1" xmlns="http://www.w3.org/2000/svg" xmlns:xlink="http://www.w3.org/1999/xlink">
    <!-- Generator: Sketch 47.1 (45422) - http://www.bohemiancoding.com/sketch -->
    <title>ic_durum_tehlikeli</title>
    <desc>Created with Sketch.</desc>
    <defs>
        <radialGradient cx="50%" cy="1.86941964%" fx="50%" fy="1.86941964%" r="96.1846315%" id="radialGradient-1">
            <stop stop-color="#BD2C52" offset="0%"></stop>
            <stop stop-color="#810027" offset="100%"></stop>
        </radialGradient>
        <circle id="path-2" cx="59.5" cy="59.5" r="55.5"></circle>
    </defs>
    <g id="Symbols" stroke="none" stroke-width="1" fill="none" fill-rule="evenodd">
        <g id="ic_durum_tehlikeli">
            <g id="Oval">
                <use fill="url(#radialGradient-1)" fill-rule="evenodd" xlink:href="#path-2"></use>
                <circle stroke="#FFFFFF" stroke-width="4" cx="59.5" cy="59.5" r="57.5"></circle>
            </g>
            <g id="gas-mask-(3)" transform="translate(25.000000, 25.000000)" fill-rule="nonzero" fill="#FFFFFF">
                <path d="M54.8083878,40.7486544 L52.0802132,46.1924645 L48.0611908,44.1875714 C48.242001,44.0300114 48.4125119,43.8644593 48.6024771,43.7160333 C52.1568859,40.9587343 54.1950063,36.8005219 54.1950063,32.3100636 L54.1950063,31.9686837 L58.7724805,31.9686837 L58.7724805,25.1182515 L54.1950063,25.1182515 L54.1950063,24.6718317 L54.1950063,24.3293101 L54.1950063,20.5512967 L58.7724805,20.5512967 L58.7724805,13.7008645 L53.3332967,13.7008645 C50.884348,5.77605611 43.4768503,0 34.7407407,0 C26.0046312,0 18.5971335,5.77605611 16.1481847,13.7008645 L10.709001,13.7008645 L10.709001,20.5512967 L15.2864752,20.5512967 L15.2864752,24.3304518 L15.2864752,24.6729734 L15.2864752,25.1182515 L10.709001,25.1182515 L10.709001,31.9686837 L15.2864752,31.9686837 L15.2864752,32.3100636 C15.2864752,36.8016637 17.3245956,40.9587343 20.87786,43.7160333 C21.0689696,43.8644593 21.2394805,44.0300114 21.4191463,44.1875714 L17.400124,46.1924645 L14.6719493,40.7486544 L0,47.404991 L11.3235269,70 L25.9966206,63.3448051 L22.5612262,56.4898059 L25.9245254,54.9473169 C26.9933656,58.8075355 30.5363307,61.6538901 34.7407407,61.6538901 C38.9451508,61.6538901 42.4881159,58.8075355 43.5569561,54.9461752 L46.9202553,56.4886642 L43.4848609,63.3436634 L58.1579546,69.9988583 L69.4814815,47.4038493 L54.8083878,40.7486544 Z M56.4837434,27.4017289 L56.4837434,29.6852063 L54.1950063,29.6852063 L54.1950063,27.4017289 L56.4837434,27.4017289 Z M56.4837434,15.9843419 L56.4837434,18.2678193 L54.1366435,18.2678193 C54.0908687,17.4937204 54.0061854,16.731039 53.8722943,15.9843419 L56.4837434,15.9843419 Z M15.2864752,29.6852063 L12.9977381,29.6852063 L12.9977381,27.4017289 L15.2864752,27.4017289 L15.2864752,29.6852063 Z M15.3436937,18.2678193 L12.9977381,18.2678193 L12.9977381,15.9843419 L15.6080428,15.9843419 C15.4741517,16.731039 15.3894684,17.4937204 15.3436937,18.2678193 Z M51.9074135,24.6729734 C51.9062691,26.9975534 51.2711446,29.2810308 50.0718463,31.2767901 C49.3920914,32.4082531 48.1481628,33.1104224 46.8264171,33.1104224 C45.9429646,33.1104224 45.081255,32.7998695 44.4015001,32.2335671 L42.1516715,30.3622574 C40.3504354,28.8665797 39.318215,26.6664492 39.318215,24.3304518 C39.318215,22.2467787 41.0164579,20.5512967 43.1060749,20.5512967 L48.1195536,20.5512967 C50.2080262,20.5512967 51.9074135,22.2456369 51.9074135,24.3304518 L51.9074135,24.6729734 L51.9074135,24.6729734 Z M17.5752123,24.3304518 C17.5752123,22.2467787 19.2734553,20.5512967 21.3630723,20.5512967 L26.3765509,20.5512967 C28.4650236,20.5512967 30.1644109,22.2456369 30.1644109,24.3304518 C30.1644109,26.6675909 29.1321904,28.8677214 27.3320987,30.3633991 L25.0799814,32.2347089 C24.4013708,32.7998695 23.5396613,33.1104224 22.6550644,33.1104224 C21.3333187,33.1104224 20.0893901,32.4082531 19.4084908,31.2767901 C18.2103369,29.2810308 17.5752123,26.9975534 17.5752123,24.6718317 L17.5752123,24.3304518 Z M12.3832122,67.0086446 L3.10810501,48.5010602 L5.68522301,47.3330615 L14.9603302,65.8406459 L12.3832122,67.0086446 Z M22.8873712,62.2475942 L17.0465141,64.8952863 L7.77140689,46.3877018 L13.612264,43.7400098 L22.8873712,62.2475942 Z M21.5358719,54.4460936 L18.4243338,48.2350351 L23.0613152,45.9218725 C24.538695,47.8354265 25.4026933,50.1463057 25.544595,52.6078943 L21.5358719,54.4460936 Z M34.7407407,59.3704127 C30.9540252,59.3704127 27.8745294,56.2979938 27.8745294,52.5199804 C27.8745294,48.7419671 30.9540252,45.6695482 34.7407407,45.6695482 C38.5274563,45.6695482 41.6069521,48.7419671 41.6069521,52.5199804 C41.6069521,56.2979938 38.5274563,59.3704127 34.7407407,59.3704127 Z M42.6551937,47.9507421 C41.0690989,45.2265536 38.1200611,43.3860708 34.7407407,43.3860708 C31.3614204,43.3860708 28.4123826,45.2265536 26.8251434,47.9507421 C25.8867612,45.6067526 24.3510186,43.5185125 22.2831446,41.9143696 C19.3856034,39.6651443 17.6999485,36.3095743 17.595811,32.6651443 C18.7115703,34.3503507 20.6215214,35.3938999 22.6562087,35.3938999 C24.0740814,35.3938999 25.4564786,34.8938183 26.5447731,33.9895612 L28.7968904,32.1182515 C31.1199586,30.1852879 32.4520036,27.3469255 32.4520036,24.3304518 C32.4520036,20.9874409 29.7261177,18.2678193 26.3754066,18.2678193 L21.3630723,18.2678193 C19.9234566,18.2678193 18.6177321,18.7907356 17.5752123,19.6276301 L17.5752123,19.409558 C17.5752123,9.96623716 25.2756684,2.28347741 34.7407407,2.28347741 C44.2058131,2.28347741 51.9062691,9.96623716 51.9062691,19.409558 L51.9062691,19.6276301 C50.8637494,18.7907356 49.5580249,18.2678193 48.1184092,18.2678193 L43.1060749,18.2678193 C39.7553638,18.2678193 37.0294779,20.9874409 37.0294779,24.3304518 C37.0294779,27.3480672 38.3615229,30.1864296 40.6857354,32.1182515 L42.935564,33.9895612 C44.0250029,34.89496 45.4074001,35.3938999 46.8252727,35.3938999 C48.85996,35.3938999 50.7699112,34.3503507 51.8856705,32.6651443 C51.7803886,36.3095743 50.0958781,39.6651443 47.1971925,41.9143696 C45.1293185,43.5196542 43.5935759,45.6078943 42.6551937,47.9507421 Z M43.9357421,52.6078943 C44.0776438,50.1463057 44.9416421,47.8354265 46.4190219,45.9218725 L51.0560033,48.2350351 L47.9433208,54.4460936 L43.9357421,52.6078943 Z M46.5952547,62.2464525 L55.8703618,43.7400098 L61.711219,46.3877018 L52.4361118,64.8952863 L46.5952547,62.2464525 Z M57.0971249,67.0086446 L54.5200069,65.8406459 L63.7951141,47.3330615 L66.3722321,48.5010602 L57.0971249,67.0086446 Z" id="Shape"></path>
                <path d="M35.2592593,47.7037037 C32.6855926,47.7037037 30.5925926,49.7967037 30.5925926,52.3703704 C30.5925926,54.944037 32.6855926,57.037037 35.2592593,57.037037 C37.8329259,57.037037 39.9259259,54.944037 39.9259259,52.3703704 C39.9259259,49.7967037 37.8329259,47.7037037 35.2592593,47.7037037 Z M35.2592593,54.7037037 C33.9724259,54.7037037 32.9259259,53.6572037 32.9259259,52.3703704 C32.9259259,51.083537 33.9724259,50.037037 35.2592593,50.037037 C36.5460926,50.037037 37.5925926,51.083537 37.5925926,52.3703704 C37.5925926,53.6572037 36.5460926,54.7037037 35.2592593,54.7037037 Z" id="Shape"></path>
                <rect id="Rectangle-path" x="33.7037037" y="38.3703704" width="2.07407407" height="2.07407407"></rect>
                <rect id="Rectangle-path" x="33.7037037" y="34.2222222" width="2.07407407" height="2.07407407"></rect>
                <rect id="Rectangle-path" x="33.7037037" y="30.0740741" width="2.07407407" height="2.07407407"></rect>
            </g>
        </g>
    </g>
</svg>