<?xml version="1.0" encoding="UTF-8"?>
<svg width="119px" height="119px" viewBox="0 0 119 119" version="1.1" xmlns="http://www.w3.org/2000/svg" xmlns:xlink="http://www.w3.org/1999/xlink">
    <!-- Generator: Sketch 47.1 (45422) - http://www.bohemiancoding.com/sketch -->
    <title>ic_durum_iyi</title>
    <desc>Created with Sketch.</desc>
    <defs>
        <radialGradient cx="50%" cy="1.86941964%" fx="50%" fy="1.86941964%" r="98.1305804%" id="radialGradient-1">
            <stop stop-color="#12A461" offset="0%"></stop>
            <stop stop-color="#09884E" offset="100%"></stop>
        </radialGradient>
        <circle id="path-2" cx="59.5" cy="59.5" r="55.5"></circle>
    </defs>
    <g id="Symbols" stroke="none" stroke-width="1" fill="none" fill-rule="evenodd">
        <g id="ic_durum_iyi">
            <g id="Oval">
                <use fill="url(#radialGradient-1)" fill-rule="evenodd" xlink:href="#path-2"></use>
                <circle stroke="#FFFFFF" stroke-width="4" cx="59.5" cy="59.5" r="57.5"></circle>
            </g>
            <g id="boy-broad-smile-copy-2" transform="translate(28.000000, 25.000000)" fill-rule="nonzero" fill="#FFFFFF">
                <path d="M17.4998317,40.5480627 C18.1571803,40.5480627 18.7751486,40.819538 19.2399712,41.3125127 C19.5028433,41.5913058 19.8473371,41.7308808 20.1919992,41.7307023 C20.5364929,41.7307023 20.881155,41.5913058 21.1440271,41.3125127 C21.6699397,40.7549265 21.6699397,39.8509015 21.1440271,39.2931369 C20.1706261,38.2607814 18.8764604,37.6923077 17.5,37.6923077 C16.1235396,37.6923077 14.8293739,38.2607814 13.8559729,39.2931369 C13.3300603,39.8507231 13.3300603,40.754748 13.8559729,41.3125127 C14.3818854,41.8702773 15.2342845,41.8700988 15.7598605,41.3125127 C16.2245148,40.819538 16.8424831,40.5480627 17.4998317,40.5480627 Z" id="Shape"></path>
                <path d="M41.2277595,39.2916137 C40.7018579,39.8495636 40.7018579,40.7541783 41.2277595,41.3123068 C41.7534929,41.8702567 42.6058742,41.8702567 43.1316075,41.3123068 C44.0910203,40.2939232 45.6524011,40.2941018 46.611814,41.3123068 C46.8746806,41.5912818 47.2191672,41.7307692 47.5638221,41.7307692 C47.908477,41.7307692 48.2529635,41.5912818 48.5158302,41.3123068 C49.0417318,40.7543569 49.0417318,39.8497422 48.5158302,39.2916137 C46.5068019,37.159295 43.2372927,37.1591164 41.2277595,39.2916137 Z" id="Shape"></path>
                <path d="M44.8596105,52.4512387 C37.3198556,60.2438221 25.0519393,60.2438221 17.5120192,52.4512387 C16.9960456,51.9179632 16.1594879,51.9179632 15.6435143,52.4512387 C15.1273756,52.9845143 15.1273756,53.8492948 15.6435143,54.3825704 C19.9285396,58.8112841 25.5571772,61.025641 31.1858149,61.025641 C36.8146177,61.025641 42.4432553,58.8112841 46.7282805,54.3825704 C47.2444193,53.8492948 47.2444193,52.984685 46.7282805,52.4512387 C46.212307,51.9179632 45.3755841,51.9179632 44.8596105,52.4512387 Z" id="Shape"></path>
                <path d="M62.3717949,41.9396229 C62.3717949,38.3539891 59.7763019,35.3641734 56.3636664,34.7406352 L56.3636664,12.6580744 C56.3636664,9.79332941 54.9367235,7.13747549 52.54659,5.55363218 C50.3015133,4.06614939 47.5147039,3.72855762 44.994548,4.61543727 L36.6965702,1.80250252 C30.3203476,-0.35917381 23.6085778,-0.580934972 17.2870407,1.16097916 C9.01120143,3.44145611 4.26662041,8.26377139 3.53423209,15.1185673 C2.8861023,15.9722818 2.37113402,16.9311018 2.02121332,17.9656572 L1.37754428,19.8682822 C1.03208432,20.8898026 1.41289981,21.9632982 2.32553529,22.5394812 C3.23800555,23.1156642 4.37252181,22.9991736 5.14836109,22.2492447 C5.41336241,21.9929984 5.70314565,21.7771772 6.00812847,21.5966663 L6.00812847,34.7406352 C2.59549299,35.3641734 0,38.3538241 0,41.9396229 C0,45.6688075 2.80713058,48.7534986 6.42149088,49.201971 C7.32916997,54.2074372 9.71434708,58.8246564 13.3614195,62.5195208 C18.1230174,67.3434861 24.4529804,70 31.1858974,70 C31.1867235,70 31.1875496,70 31.1883756,70 C37.9127016,69.99934 44.2344039,67.3837463 48.9892281,62.6351864 C52.7033769,58.925802 55.114162,54.2615575 55.9919376,49.196691 C59.586142,48.7295735 62.3717949,45.6542874 62.3717949,41.9396229 Z M51.0851176,7.75358872 C52.7598797,8.86321953 53.7202617,10.6508389 53.7202617,12.6580744 L53.7202617,29.93185 C49.6178628,29.2951116 46.4679157,25.743633 46.4679157,21.4707706 L46.3585448,6.95729454 C47.9725086,6.53241731 49.6555313,6.80631875 51.0851176,7.75358872 Z M4.26876817,19.5697957 L4.52567407,18.8106267 C5.19858578,16.8215412 6.6929355,15.2066778 8.62542955,14.3803535 C10.5577584,13.5540291 12.7592189,13.5883493 14.6649485,14.4748989 C18.6673936,16.3366037 23.5059807,15.3300984 26.4312384,12.0274411 L26.7586902,11.6576742 C27.2424333,11.1116863 27.1912173,10.2774419 26.6445282,9.79448441 C26.0976738,9.31152688 25.2623579,9.36251215 24.7787801,9.90850001 L24.4513283,10.2782669 C22.2956318,12.7120297 18.7301745,13.4535436 15.7809609,12.0817264 C13.194885,10.8787051 10.2073421,10.8320099 7.58491938,11.9535207 C7.34618689,12.0556563 7.11406291,12.1696719 6.88557362,12.2889675 C8.42188739,8.19843105 12.1401665,5.31784595 17.9903516,3.7057875 C23.7993986,2.10494911 29.9740616,2.31136519 35.8472112,4.30226562 L43.7151401,6.96950461 L43.8182329,13.7901454 C40.3148956,18.5472853 35.2055247,21.7676072 29.3830954,22.874928 C23.4210613,24.0086489 17.3389175,22.8089276 12.2566416,19.4967003 C9.77332805,17.8785368 6.64238039,17.9476722 4.26876817,19.5697957 Z M2.64340471,41.9396229 C2.64340471,39.8172168 4.06572165,38.0213474 6.00812847,37.4499494 L6.00812847,44.6047169 C6.00812847,45.2228101 6.0304322,45.8374383 6.07388316,46.4481065 C4.09810336,45.8981587 2.64340471,44.0859542 2.64340471,41.9396229 Z M47.1201758,60.7682016 C42.8646246,65.0182939 37.2065821,67.3591612 31.1882104,67.3598212 C31.1872191,67.3598212 31.1870539,67.3598212 31.1858974,67.3598212 C25.1666997,67.3598212 19.5045268,64.9823237 15.2438541,60.6660661 C10.9927637,56.3592135 8.65153317,50.6551336 8.65153317,44.6045519 L8.65153317,20.974283 C9.40011234,21.0300533 10.1429091,21.2719446 10.8116905,21.7077119 C16.4695678,25.3949862 23.2403185,26.7306682 29.8772469,25.4684116 C35.2646709,24.4437562 40.1044145,21.7949973 43.8243458,17.8886018 L43.8243458,21.4706056 C43.8243458,27.2012507 48.1557296,31.9377655 53.7200965,32.5933139 L53.7200965,44.8541982 C53.7202617,50.8658397 51.3763878,56.5176143 47.1201758,60.7682016 Z M56.3126156,46.4438165 C56.3453278,45.9168038 56.3636664,45.386986 56.3636664,44.8543632 L56.3636664,37.4499494 C58.3060732,38.0213474 59.7283902,39.8172168 59.7283902,41.9396229 C59.7283902,44.0805091 58.2811261,45.8890836 56.3126156,46.4438165 Z" id="Shape"></path>
            </g>
        </g>
    </g>
</svg>