<?xml version="1.0" encoding="UTF-8"?>
<svg width="119px" height="119px" viewBox="0 0 119 119" version="1.1" xmlns="http://www.w3.org/2000/svg" xmlns:xlink="http://www.w3.org/1999/xlink">
    <!-- Generator: Sketch 47.1 (45422) - http://www.bohemiancoding.com/sketch -->
    <title>ic_durum_hassas</title>
    <desc>Created with Sketch.</desc>
    <defs>
        <radialGradient cx="50%" cy="7.9806401%" fx="50%" fy="7.9806401%" r="90.372943%" id="radialGradient-1">
            <stop stop-color="#FBAB4F" offset="0%"></stop>
            <stop stop-color="#E46404" offset="100%"></stop>
        </radialGradient>
        <circle id="path-2" cx="59.5" cy="59.5" r="55.5"></circle>
    </defs>
    <g id="Symbols" stroke="none" stroke-width="1" fill="none" fill-rule="evenodd">
        <g id="ic_durum_hassas">
            <g id="Oval">
                <use fill="url(#radialGradient-1)" fill-rule="evenodd" xlink:href="#path-2"></use>
                <circle stroke="#FFFFFF" stroke-width="4" cx="59.5" cy="59.5" r="57.5"></circle>
            </g>
            <g id="boy-smiling-copy" transform="translate(28.000000, 25.000000)" fill-rule="nonzero" fill="#FFFFFF">
                <ellipse id="Oval" cx="17.775" cy="43.1415929" rx="2.475" ry="2.43362832"></ellipse>
                <ellipse id="Oval" cx="45.675" cy="43.1415929" rx="2.475" ry="2.43362832"></ellipse>
                <path d="M17.5499156,35.3982301 C16.1695512,35.3982301 14.871715,35.896513 13.8955531,36.8014011 C13.368149,37.2901407 13.368149,38.0825436 13.8955531,38.5714397 C14.4229573,39.0603358 15.277774,39.0601793 15.8048407,38.5714397 C16.2709816,38.1393337 16.8907026,37.9013782 17.5499156,37.9013782 C18.2091287,37.9013782 18.8288497,38.1393337 19.2949906,38.5714397 C19.5586083,38.8158095 19.9040791,38.9381509 20.2497187,38.9379944 C20.5951896,38.9379944 20.9408292,38.8158095 21.2044469,38.5714397 C21.731851,38.0827 21.731851,37.2902972 21.2044469,36.8014011 C20.2281162,35.8966695 18.93028,35.3982301 17.5499156,35.3982301 Z" id="Shape" transform="translate(17.550000, 37.168142) scale(1, -1) translate(-17.550000, -37.168142) "></path>
                <path d="M41.7955531,36.7999718 C41.268149,37.2890384 41.268149,38.0819713 41.7955531,38.5711944 C42.3227885,39.0604176 43.1776052,39.060261 43.7048407,38.5711944 C44.6669947,37.6785383 46.2328366,37.6786949 47.1949906,38.5711944 C47.4586083,38.8157277 47.8040791,38.9379944 48.1497187,38.9379944 C48.4953583,38.9379944 48.8408292,38.8157277 49.1044469,38.5711944 C49.631851,38.0821278 49.631851,37.289195 49.1044469,36.7999718 C47.0896785,34.9310611 43.8108278,34.9309046 41.7955531,36.7999718 Z" id="Shape" transform="translate(45.450000, 37.168142) scale(1, -1) translate(-45.450000, -37.168142) "></path>
                <path d="M34.5739569,53.4747175 C33.8729634,54.1374947 32.9412007,54.5026262 31.9498297,54.5026262 C30.958629,54.5026262 30.026696,54.1376558 29.3258728,53.4747175 C28.7938263,52.9715544 27.9312092,52.9715544 27.3991626,53.4747175 C26.8669458,53.9778806 26.8669458,54.7936684 27.3991626,55.2969926 C28.6146608,56.4466655 30.230897,57.079646 31.95,57.079646 C33.669103,57.079646 35.2853392,56.4465045 36.5008374,55.2969926 C37.0330542,54.7938295 37.0330542,53.9780416 36.5008374,53.4747175 C35.9686205,52.9715544 35.1060034,52.9715544 34.5739569,53.4747175 Z" id="Shape" transform="translate(31.950000, 55.088496) scale(1, -1) translate(-31.950000, -55.088496) "></path>
                <path d="M63,41.8865032 C63,38.3054108 60.3783653,35.319382 56.931358,34.6966335 L56.931358,12.642042 C56.931358,9.78092541 55.490043,7.12843533 53.0758362,5.54659808 C50.8083142,4.0609993 47.9931024,3.72383511 45.4477305,4.60959146 L37.0661759,1.80021951 C30.6257324,-0.358718889 23.8463621,-0.580199174 17.4611548,1.15950869 C9.10196173,3.43709724 4.30959356,8.25330469 3.56982867,15.0994185 C2.91517096,15.9520517 2.39501595,16.9096573 2.04157087,17.9429024 L1.39141882,19.8431175 C1.04247942,20.863344 1.42713046,21.93548 2.34895795,22.5109332 C3.27045168,23.0863865 4.41639472,22.9700434 5.20021509,22.2210643 C5.46788549,21.9651425 5.76058741,21.7495948 6.06864199,21.5693124 L6.06864199,34.6967983 C2.62163465,35.3195468 0,38.3054108 0,41.886668 C0,45.6111292 2.83540384,48.6919134 6.48616777,49.1398177 C7.40298895,54.1389441 9.81218942,58.7503153 13.495995,62.4404998 C18.3055514,67.2583552 24.6992695,69.9115044 31.5,69.9115044 C31.5008344,69.9115044 31.5016688,69.9115044 31.5025032,69.9115044 C38.2945561,69.9108453 44.6799303,67.2985644 49.4826448,62.5560189 C53.2342023,58.8513327 55.6692687,54.1929959 56.5558852,49.1345444 C60.1862901,48.6678538 63,45.5964627 63,41.8865032 Z M51.599644,7.7437682 C53.2912742,8.85199359 54.2613291,10.6373488 54.2613291,12.642042 L54.2613291,29.893939 C50.1176111,29.2580071 46.9359378,25.7110267 46.9359378,21.4435762 L46.8254654,6.94848259 C48.4556849,6.52414351 50.155659,6.79769803 51.599644,7.7437682 Z M4.31176296,19.545009 L4.5712564,18.7868016 C5.25094564,16.8002355 6.76034636,15.1874174 8.71230438,14.3621396 C10.6640955,13.5368619 12.887729,13.5711386 14.812653,14.4565654 C18.8554105,16.3159121 23.7427316,15.3106817 26.6974523,12.0122074 L27.0282022,11.6429088 C27.5168175,11.0976125 27.4650857,10.2644248 26.9128903,9.78207895 C26.3603612,9.29973312 25.5167989,9.35065381 25.0283505,9.89595014 L24.6976007,10.2652487 C22.5201921,12.6959289 18.9188237,13.4365036 15.9399058,12.066424 C13.3277831,10.8649264 10.3101498,10.8182903 7.66131425,11.9383807 C7.42017726,12.0403869 7.18571535,12.154258 6.95492472,12.2734026 C8.50671216,8.18804711 12.2624416,5.31111049 18.1715494,3.70109383 C24.0391048,2.10228303 30.2759586,2.30843767 36.2082623,4.29681648 L44.1554365,6.96067719 L44.2595676,13.7726791 C40.7209449,18.5237937 35.5601127,21.7400368 29.6790403,22.8459551 C23.6571238,23.9782401 17.5135541,22.7800384 12.3800897,19.4720062 C9.87159757,17.8558923 6.70928206,17.92494 4.31176296,19.545009 Z M2.67002893,41.8865032 C2.67002893,39.7667852 4.10667136,37.9731904 6.06864199,37.4025161 L6.06864199,44.5482216 C6.06864199,45.165532 6.09117036,45.7793817 6.13505896,46.3892765 C4.13937922,45.8400251 2.67002893,44.0301159 2.67002893,41.8865032 Z M47.5947675,60.691234 C43.2963547,64.9359432 37.5813246,67.2738456 31.5023363,67.2745048 C31.501335,67.2745048 31.5011681,67.2745048 31.5,67.2745048 C25.4201773,67.2745048 19.7009753,64.9000186 15.3973893,60.5892278 C11.1034822,56.2878302 8.73867092,50.590975 8.73867092,44.5480568 L8.73867092,20.9477175 C9.49478974,21.0034171 10.2450679,21.245002 10.9205852,21.6802174 C16.6354483,25.3628215 23.4743937,26.6968117 30.1781688,25.4361539 C35.6198546,24.4127963 40.5083438,21.7673923 44.265742,17.8659446 L44.265742,21.4434114 C44.265742,27.1667982 48.6407513,31.8973139 54.2611622,32.552032 L54.2611622,44.7973869 C54.2613291,50.8014142 51.8938478,56.4460304 47.5947675,60.691234 Z M56.8797931,46.3849919 C56.9128347,45.8586466 56.931358,45.3294999 56.931358,44.7975517 L56.931358,37.4025161 C58.8933286,37.9731904 60.3299711,39.7667852 60.3299711,41.8865032 C60.3299711,44.0246778 58.8681302,45.8309616 56.8797931,46.3849919 Z" id="Shape"></path>
            </g>
        </g>
    </g>
</svg>